<svg xmlns="http://www.w3.org/2000/svg" width="420" height="320" viewBox="0 0 420 320">
  <rect width="420" height="320" fill="#112415"/>
  <g fill="none" stroke="#28a745" stroke-width="5" opacity="0.22">
    <path d="M22 282 C94 204 126 145 132 42"/>
    <path d="M280 308 C269 219 291 137 386 64"/>
    <path d="M162 312 C183 225 225 171 320 145"/>
  </g>
  <g fill="#6ee787" opacity="0.25">
    <ellipse cx="130" cy="92" rx="32" ry="12" transform="rotate(-36 130 92)"/>
    <ellipse cx="104" cy="140" rx="30" ry="11" transform="rotate(-18 104 140)"/>
    <ellipse cx="324" cy="120" rx="30" ry="11" transform="rotate(-34 324 120)"/>
    <ellipse cx="214" cy="222" rx="34" ry="12" transform="rotate(-24 214 222)"/>
  </g>
  <g fill="#d6ff7f" opacity="0.42">
    <circle cx="66" cy="68" r="3"/><circle cx="196" cy="68" r="2.5"/><circle cx="354" cy="214" r="3"/>
    <circle cx="92" cy="246" r="2.5"/><circle cx="266" cy="48" r="3"/><circle cx="250" cy="268" r="2.5"/>
  </g>
</svg>
