<svg xmlns="http://www.w3.org/2000/svg" width="420" height="320" viewBox="0 0 420 320">
  <rect width="420" height="320" fill="#2b1111"/>
  <g opacity="0.24">
    <path d="M82 238 C104 178 156 132 222 108 C268 91 323 91 377 110" fill="none" stroke="#7d2a2a" stroke-width="8"/>
    <path d="M108 142 C91 120 98 92 126 86 C135 62 173 60 185 88 C213 91 222 123 202 142 C203 174 161 190 140 164 C122 174 98 164 108 142Z" fill="#dc3545"/>
    <path d="M292 198 C278 181 284 158 306 153 C314 132 344 132 355 154 C377 158 383 184 367 198 C369 224 334 236 318 214 C303 224 284 216 292 198Z" fill="#b42030"/>
    <path d="M197 107 C197 107 188 139 154 147 M345 178 C345 178 330 196 307 200" stroke="#ffb0b0" stroke-width="3" fill="none"/>
  </g>
</svg>
